inDegrees=no
num_controls=7
num_derivatives=13
num_iterations=77
num_multipliers=7
num_parameters=0
num_slacks=7
num_states=26
objective=0.453060
objective_accelerations=0.048364
objective_balance=0.001033
objective_effort=0.037560
objective_height=0.360466
objective_ligament=0.005636
solver_duration=862.365659
status=Solve_Succeeded
success=true
DataType=double
version=3
OpenSimVersion=4.5
endheader
time	/jointset/ground_pelvis/pelvis_tilt/value	/jointset/ground_pelvis/pelvis_tx/value	/jointset/ground_pelvis/pelvis_ty/value	/jointset/hip_r/hip_flexion_r/value	/jointset/hip_r/hip_adduction_r/value	/jointset/hip_r/hip_rotation_r/value	/jointset/back/lumbar_extension/value	/jointset/patellofemoral_r/patellar_flexion_r/value	/jointset/knee_r/knee_flexion_r/value	/jointset/knee_r/knee_adduction_r/value	/jointset/knee_r/knee_rotation_r/value	/jointset/ankle_r/ankle_angle_r/value	/jointset/subtalar_r/subtalar_angle_r/value	/jointset/ground_pelvis/pelvis_tilt/speed	/jointset/ground_pelvis/pelvis_tx/speed	/jointset/ground_pelvis/pelvis_ty/speed	/jointset/hip_r/hip_flexion_r/speed	/jointset/hip_r/hip_adduction_r/speed	/jointset/hip_r/hip_rotation_r/speed	/jointset/back/lumbar_extension/speed	/jointset/patellofemoral_r/patellar_flexion_r/speed	/jointset/knee_r/knee_flexion_r/speed	/jointset/knee_r/knee_adduction_r/speed	/jointset/knee_r/knee_rotation_r/speed	/jointset/ankle_r/ankle_angle_r/speed	/jointset/subtalar_r/subtalar_angle_r/speed	/forceset/tau_hip_flexion_r	/forceset/tau_hip_adduction_r	/forceset/tau_hip_rotation_r	/forceset/tau_knee_flexion_r	/forceset/tau_ankle_angle_r	/forceset/tau_subtalar_angle_r	/forceset/tau_lumbar_extension	lambda_cid13_p0	lambda_cid14_p0	lambda_cid14_p1	lambda_cid14_p2	lambda_cid14_p3	lambda_cid14_p4	lambda_cid14_p5	/jointset/ground_pelvis/pelvis_tilt/accel	/jointset/ground_pelvis/pelvis_tx/accel	/jointset/ground_pelvis/pelvis_ty/accel	/jointset/hip_r/hip_flexion_r/accel	/jointset/hip_r/hip_adduction_r/accel	/jointset/hip_r/hip_rotation_r/accel	/jointset/back/lumbar_extension/accel	/jointset/patellofemoral_r/patellar_flexion_r/accel	/jointset/knee_r/knee_flexion_r/accel	/jointset/knee_r/knee_adduction_r/accel	/jointset/knee_r/knee_rotation_r/accel	/jointset/ankle_r/ankle_angle_r/accel	/jointset/subtalar_r/subtalar_angle_r/accel	gamma_cid13_p0	gamma_cid14_p0	gamma_cid14_p1	gamma_cid14_p2	gamma_cid14_p3	gamma_cid14_p4	gamma_cid14_p5
1.5	-0.07293191836949789	0.03096330427015353	0.8165417369624087	0.8057749965423011	-0.2206477504924456	-0.1353303892210564	-0.6267433194660045	0.9443696993031842	0.9443696993031749	-0.05997414620118908	0.1745249889066488	0.3057844800729621	0.1469114010022452	0.4468447881235245	0.2206220306291785	0.5115080837614286	-1.998184300969561	0.02937345110319256	-0.1925400923619884	0.7993192193123755	-1.972491858738377	-1.972491858738371	0.4392752336716225	-8.727695096896655e-05	-0.5268747266667623	-0.1696914948954623	-0.1533253049725459	0.009153179735997706	0.01898052818871104	-0.3135809408922712	0.02283515276570148	-0.00525086062002628	0.2094181509571679	-9.07707805736926	-35.21452760896733	-8.411769017550927	1.723605487654352	-3.191379707471008	-630.667801692661	59.58099488189989	0.138406646818566	0.5702930095787727	-0.50899178720275	-0.9892685639641147	-0.1957714231312136	-0.5839765751045917	1.807119088070108	-1.360162330337474	-1.360162330337472	0.4432304965672711	-0.01099517295236546	-0.6699757225795698	-0.4039520287864336	1.863595580405398e-07	2.11189111139191e-07	-5.444453528049842e-07	2.115741751521136e-06	-5.503664259740302e-08	3.150010314943139e-07	-4.310256298226853e-07
1.51	-0.06845687620350328	0.03319781597060884	0.8216303354665662	0.7857457105495168	-0.2203646922780337	-0.1372841793939372	-0.6186611661279874	0.9245793871080401	0.9245793871080306	-0.05555735504265498	0.1745243000090825	0.3004828159004168	0.1451932959541764	0.4480986350780791	0.2262546708649324	0.5061035722174672	-2.007414513739882	0.02722025132459288	-0.1982181626335972	0.8170059122026506	-1.985297158691361	-1.985297158691359	0.4440669004891905	-4.670496409232941e-05	-0.5333723226065209	-0.1739050736385079	-0.1463578100835553	0.007458677244577913	0.01875581535486063	-0.3093933359474723	0.02427181063552744	-0.005729375876314311	0.2029283853129158	-10.11556997611217	-34.45267243312616	-8.297741825118711	1.490170243529905	-3.288021945004406	-625.842616513961	59.48682573561362	0.1091355843183132	0.5559013757351066	-0.5723371301309633	-0.851122302878852	-0.2276311913186636	-0.5595329718560844	1.733613976195639	-1.199725969859472	-1.199725969860022	0.4946511075612333	0.01239472555139222	-0.6267581703143177	-0.4263259921146501	1.471228111283798e-07	1.566759494878249e-07	-5.586542544633126e-07	1.597127669897703e-06	-2.651818139888952e-08	2.735383046096031e-07	-4.561163844717034e-07
1.52	-0.063971243195055	0.03548788444245394	0.8266616575968564	0.7656318774951653	-0.2201036734486262	-0.139294712413269	-0.6104053119437299	0.9046692194849459	0.9046692194849452	-0.05109314394930434	0.1745241790995902	0.2951187544403462	0.143433802079667	0.448962956614413	0.2317333849071336	0.500052808987979	-2.015093713282715	0.02496557410222284	-0.2038886616518897	0.8340593885605051	-1.996462944327569	-1.996462944327571	0.4487592206351461	2.63206645334031e-05	-0.539354184171892	-0.1779692601835954	-0.1393903151945704	0.00576417475314977	0.0185311025210467	-0.30520573100267	0.02570846850535102	-0.006207891132618665	0.1964386196686595	-11.15756542931602	-33.69155885299782	-8.182386786157693	1.254857805873785	-3.398334261381406	-621.0228461417381	59.44889968610435	0.06050156317440041	0.5395077708682734	-0.6382421243080618	-0.6790659184667135	-0.2160669118852936	-0.5824623244412998	1.680475781585935	-1.032259466982277	-1.032259466982276	0.4233611622448071	-0.004504444602558919	-0.5668288477020216	-0.3740735891947991	1.275698758081199e-07	1.208153676238944e-07	-6.498466797507312e-07	1.261496256680789e-06	3.823236812910294e-10	2.527967671464772e-07	-5.255490378938698e-07
1.53	-0.05947900083388694	0.03783190222892106	0.8316293126170132	0.7454491003364514	-0.2198655567970605	-0.1413623869034953	-0.601982231158766	0.8846555287748854	0.8846555287748757	-0.04658309143677603	0.1745250149504965	0.2896974787462827	0.1416346659247634	0.4494122394080839	0.2370371946813485	0.4933772506409079	-2.021190894568332	0.02265161831868544	-0.20963262021102	0.8504353700271629	-2.005998060113628	-2.00599806011363	0.4532260696916419	0.0001222848658251447	-0.5448128294404303	-0.1818171252039107	-0.132302800360093	0.00388887214768107	0.01836036774678204	-0.3013601851778333	0.02734742322398309	-0.006763132849507874	0.1898529361216743	-12.19982260412079	-32.89162296696195	-8.10246319659896	1.035368141894144	-3.488884104616547	-616.4600741447342	59.43554162957759	0.02615895373819781	0.520878733977774	-0.6973033994885303	-0.5344082835233316	-0.2398934151753686	-0.5681082981848549	1.597949568388598	-0.8725929306329967	-0.8725929306329223	0.4544501947199719	0.01404004284297392	-0.5221283725655393	-0.3840362157541136	1.289309903042536e-07	1.047731517841141e-07	-8.228340988940573e-07	1.1202839286458e-06	2.556375038574282e-08	2.54071493443785e-07	-6.420949587625058e-07
1.54	-0.05498446218152819	0.0402279703437862	0.836527193911783	0.7252134785548973	-0.2196507464040476	-0.1434870501146214	-0.5933990325112993	0.8645547958477146	0.8645547958477108	-0.04202914975021275	0.1745262890814845	0.2842242673983069	0.1397982724681958	0.4494222148527484	0.2421434505867412	0.4860980639105562	-2.025662637850516	0.02030432239165499	-0.2152864058315911	0.8660829610611397	-2.013871387748299	-2.0138713877483	0.4575370554428601	0.0001139766810344035	-0.5497413149544004	-0.1854207205163958	-0.1252152855256213	0.002013569542202618	0.01818963297259065	-0.2975146393529893	0.02898637794261287	-0.007318374566413955	0.1832672525746849	-13.23902087081679	-32.09294572469455	-8.022054337435332	0.8149945670895653	-3.588832685402936	-611.9083226024095	59.47315869847838	-0.02735990662695761	0.4999969971038675	-0.7589678009642038	-0.3539783177802934	-0.2227349405839157	-0.5644277367294339	1.534797695049739	-0.6999018367046316	-0.6999018367046321	0.3921885011893038	-0.02535892181907681	-0.4607968967883236	-0.3252196476287734	1.288577589887532e-07	8.890663819561654e-08	-9.770082485022253e-07	9.729590516834083e-07	4.882186445237424e-08	2.537763985517798e-07	-7.389894973044765e-07
1.55	-0.05049199898736873	0.04267406101929924	0.8413493274700178	0.7049413167086636	-0.2194594294163994	-0.1456686454138776	-0.5846630944068637	0.8443836930183681	0.844383693018363	-0.03743376226327263	0.1745273508081694	0.2787045505182448	0.1379273413215787	0.4489996246372912	0.2470360375520226	0.4782340610037824	-2.028491287208837	0.01796046993121294	-0.2210469421682657	0.8809719992029255	-2.020056616340961	-2.020056616340962	0.4614796879027951	9.828353011680235e-05	-0.5541019794822972	-0.1887114131609345	-0.1181866859403826	9.718769982009456e-05	0.0180203877300256	-0.2937683208678432	0.03059835150851901	-0.007966946153746601	0.1767329562312508	-14.27068592686139	-31.329150217269	-7.996334120206814	0.6125328778229618	-3.646420969189401	-607.6117082190797	59.4581646121187	-0.06032396262321779	0.4781088125590178	-0.814254444655674	-0.2055342503781943	-0.2399815437832988	-0.5838204640466738	1.446057780232217	-0.5339743381040649	-0.5339743381040345	0.3860342864651978	0.01042584766688679	-0.4086465028208196	-0.3229789166087045	1.271319118468047e-07	7.324256415751005e-08	-1.10950623973293e-06	8.185914553046624e-07	6.986398787108229e-08	2.516725966373054e-07	-8.132422257744211e-07
1.56	-0.04600588477208846	0.04516792141772876	0.8460899934173605	0.6846492231677415	-0.2192915051823576	-0.1479082368528819	-0.5757822457397128	0.8241595097095782	0.8241595097095824	-0.032800801718122	0.1745282756752073	0.2731442379384975	0.1360251062797678	0.4481524190771126	0.2516973951700415	0.4698045417321343	-2.029648976787967	0.01562577167041162	-0.2268856337813499	0.8950650736042833	-2.024487483635908	-2.024487483635909	0.4650516670855137	8.660475499880429e-05	-0.5578604548914115	-0.191681499555165	-0.111158086355148	-0.001819194142559323	0.01785114248751283	-0.2900220023826939	0.03221032507442573	-0.008615517741075293	0.1701986598878128	-15.29144763508385	-30.56718538450484	-7.971032002763942	0.4102491353930927	-3.710208759041103	-603.334458778857	59.48754886869082	-0.1122829755712606	0.45375112765137	-0.8720710739390701	-0.01978636194203792	-0.2209041006557717	-0.580058792011335	1.375604946964121	-0.3490295771618252	-0.3490295771618255	0.3180578457459992	-0.0245560466591881	-0.3403590730317061	-0.2610983975671128	1.279224452959764e-07	5.828563499939822e-08	-1.268463175595929e-06	6.548220348369687e-07	9.30492238287825e-08	2.492975276103155e-07	-8.888335586544743e-07
